<svg width="25" height="24" viewBox="0 0 25 24" fill="none" xmlns="http://www.w3.org/2000/svg">
<g clip-path="url(#clip0_2025_123)">
<path d="M14.4998 6C13.3948 6 12.4998 6.895 12.4998 8C12.4998 6.895 11.6048 6 10.4998 6C9.3948 6 8.4998 6.895 8.4998 8C8.4998 9.595 10.3698 11.829 11.5518 12.777C12.1078 13.223 12.8908 13.223 13.4468 12.777C14.6298 11.829 16.4988 9.595 16.4988 8C16.4988 6.895 15.6038 6 14.4988 6H14.4998ZM2.9998 2.5C2.9998 1.119 4.1188 0 5.4998 0C6.8808 0 7.9998 1.119 7.9998 2.5C7.9998 3.881 6.8808 5 5.4998 5C4.1188 5 2.9998 3.881 2.9998 2.5ZM10.1768 14.234C9.0458 13.285 6.4998 10.602 6.4998 8C6.4998 7.372 6.6578 6.786 6.9168 6.257C6.4728 6.094 5.9968 6 5.4998 6C3.4198 6 1.6568 7.557 1.3988 9.62L0.522798 16.628C0.415798 17.481 0.680798 18.34 1.2508 18.985C1.5918 19.371 2.0238 19.659 2.4998 19.828V23C2.4998 23.553 2.9478 24 3.4998 24C4.0518 24 4.4998 23.553 4.4998 23V20H6.4998V23C6.4998 23.553 6.9478 24 7.4998 24C8.0518 24 8.4998 23.553 8.4998 23V19.828C8.9758 19.659 9.4078 19.372 9.7488 18.985C10.3178 18.339 10.5828 17.48 10.4768 16.628L10.1778 14.234H10.1768Z" fill="white"/>
<path d="M19.268 5C17.887 5 16.768 3.881 16.768 2.5C16.768 1.119 17.887 0 19.268 0C20.649 0 21.768 1.119 21.768 2.5C21.768 3.881 20.649 5 19.268 5ZM18.268 8C18.268 7.29 18.066 6.632 17.741 6.053C17.915 6.03 18.088 6 18.268 6H20.268C22.477 6 24.268 7.791 24.268 10V13C24.268 14.477 23.459 15.752 22.268 16.445V23C22.268 23.553 21.82 24 21.268 24C20.716 24 20.268 23.553 20.268 23V17H18.268V23C18.268 23.553 17.82 24 17.268 24C16.716 24 16.268 23.553 16.268 23V16.445C15.449 15.969 14.819 15.213 14.5 14.31C15.579 13.434 18.268 10.672 18.268 8Z" fill="white"/>
</g>
<defs>
<clipPath id="clip0_2025_123">
<rect width="24" height="24" fill="white" transform="translate(0.5)"/>
</clipPath>
</defs>
</svg>
