<svg width="24" height="24" viewBox="0 0 24 24" fill="none" xmlns="http://www.w3.org/2000/svg">
<g clip-path="url(#clip0_2048_11)">
<path d="M2.062 7C2.554 3.054 5.92 0 10 0H14C18.081 0 21.442 3.058 21.932 7.007C19.755 7.044 18 8.814 18 11V13H6V11C6 8.812 4.242 7.034 2.062 7ZM21.664 9.027C20.681 9.187 20 10.11 20 11.107V19C20 19.552 19.552 20 19 20C18.448 20 18 19.552 18 19V15H6V19C6 19.552 5.552 20 5 20C4.448 20 4 19.552 4 19V11.107C4 10.111 3.319 9.187 2.336 9.027C1.083 8.823 0 9.785 0 11V17.5C0 19.06 0.795 20.433 2 21.24V23C2 23.552 2.448 24 3 24C3.552 24 4 23.552 4 23V21.95C4.166 21.969 4.329 22 4.5 22H19.5C19.671 22 19.834 21.968 20 21.95V23C20 23.552 20.448 24 21 24C21.552 24 22 23.552 22 23V21.24C23.205 20.433 24 19.06 24 17.5V11C24 9.785 22.917 8.824 21.664 9.027Z" fill="white"/>
</g>
<defs>
<clipPath id="clip0_2048_11">
<rect width="24" height="24" fill="white"/>
</clipPath>
</defs>
</svg>
