<svg width="24" height="24" viewBox="0 0 24 24" fill="none" xmlns="http://www.w3.org/2000/svg">
<g clip-path="url(#clip0_2026_129)">
<path d="M9.5 2.5C9.5 1.119 10.619 0 12 0C13.381 0 14.5 1.119 14.5 2.5C14.5 3.881 13.381 5 12 5C10.619 5 9.5 3.881 9.5 2.5ZM17 10V13C17 14.474 16.19 15.75 15 16.444V23C15 23.552 14.553 24 14 24C13.447 24 13 23.552 13 23V17H11V23C11 23.552 10.553 24 10 24C9.447 24 9 23.552 9 23V16.444C7.81 15.75 7 14.474 7 13V10C7 7.794 8.794 6 11 6H13C15.206 6 17 7.794 17 10Z" fill="white"/>
</g>
<defs>
<clipPath id="clip0_2026_129">
<rect width="24" height="24" fill="white"/>
</clipPath>
</defs>
</svg>
