<svg width="24" height="24" viewBox="0 0 24 24" fill="none" xmlns="http://www.w3.org/2000/svg">
<g clip-path="url(#clip0_2048_27)">
<path d="M22 14.537V13C22 10.794 20.206 9 18 9C15.794 9 14 10.794 14 13V14.537C12.805 15.23 12 16.523 12 18V20C12 22.206 13.794 24 16 24H20C22.206 24 24 22.206 24 20V18C24 16.523 23.195 15.23 22 14.537ZM18 20.5C17.172 20.5 16.5 19.828 16.5 19C16.5 18.172 17.172 17.5 18 17.5C18.828 17.5 19.5 18.172 19.5 19C19.5 19.828 18.828 20.5 18 20.5ZM20 14H16V13C16 11.897 16.897 11 18 11C19.103 11 20 11.897 20 13V14ZM8 12C11.309 12 14 9.309 14 6C14 2.691 11.309 0 8 0C4.691 0 2 2.691 2 6C2 9.309 4.691 12 8 12ZM10 20C10 21.535 10.58 22.938 11.532 24H1C0.448 24 0 23.552 0 23V22.271C0 18.156 2.993 14.511 7.083 14.052C8.043 13.944 8.974 14.008 9.849 14.216C10.465 14.362 10.736 15.055 10.486 15.636C10.174 16.362 10 17.161 10 18V20Z" fill="white"/>
</g>
<defs>
<clipPath id="clip0_2048_27">
<rect width="24" height="24" fill="white"/>
</clipPath>
</defs>
</svg>
