<svg width="131" height="145" viewBox="0 0 131 145" fill="none" xmlns="http://www.w3.org/2000/svg">
<g clip-path="url(#clip0_2045_12)">
<path d="M26.8394 0.516468C21.9785 15.4085 25.7674 30.487 32.1163 44.2189C33.3287 46.8408 34.6735 49.597 36.1174 52.0297C52.728 51.728 68.578 57.7918 84.8855 59.7143C100.262 61.5271 117.283 60.0489 128.528 48.3793C129.195 47.6855 129.848 46.7036 130.496 45.9494C130.702 45.7081 131.036 45.0581 130.997 45.8973C126.486 56.7304 118.222 64.9004 106.966 68.6029C84.8359 75.8843 62.5985 66.0057 40.62 63.595C44.8884 75.5497 42.1466 86.391 34.6707 96.2038C34.0865 96.9717 33.1083 98.3704 32.4938 98.9738C32.199 99.2618 32.0198 99.621 31.5266 99.5168C36.1201 91.9446 36.1615 84.6522 30.2893 77.8507C22.4608 68.7811 8.93916 64.9772 2.5848 54.6872C-2.76652 46.0235 1.06924 36.6495 8.10146 30.4075C4.53575 40.8181 12.2844 48.7441 20.0303 54.3279L26.5666 58.3787C23.7449 52.1503 20.9149 45.8589 19.2643 39.1836C15.9714 25.874 15.7978 11.4455 25.8749 1.05675C26.1615 0.760554 26.3599 0.414994 26.8421 0.513725L26.8394 0.516468Z" fill="white"/>
<path d="M97.936 85.2611C99.0906 81.5038 101.91 77.198 105.462 75.3385C111.48 72.1873 119.137 74.6556 124.64 71.3893C126.759 70.1332 127.944 68.3176 129.62 66.6118C127.864 71.499 123.659 77.4722 118.672 79.4359C114.144 81.2185 108.545 80.0584 103.781 81.619C101.56 82.3457 99.7024 83.802 97.936 85.2611Z" fill="white"/>
<path d="M34.2796 143.129C33.7891 143.565 33.3565 144.253 32.629 144.5C32.2405 144.058 33.8084 143.085 34.004 142.854L34.2796 143.129Z" fill="white"/>
<path d="M34.2795 143.129C33.891 143.493 33.7505 143.34 34.004 142.854C35.481 141.121 37.0572 138.381 37.6303 136.179C42.0558 119.14 15.0732 107.917 5.61605 97.7478C-2.40818 89.1198 -1.48231 77.73 6.18095 69.2254C7.48984 67.7718 8.25865 66.3485 10.2261 67.3824C13.0616 68.8716 23.8828 80.5466 25.9632 83.5305C29.4959 88.5932 30.0304 93.2062 26.9607 98.7105C35.8337 105.197 47.7543 113.893 45.5085 126.471C44.4559 132.367 38.6637 139.223 34.2795 143.131V143.129Z" fill="white"/>
<path d="M58.5286 36.1668C58.2117 35.8843 61.5294 29.1267 62.5793 28.8195C67.3299 28.5836 72.1108 28.9347 76.8614 28.7729C88.6442 28.3725 103.348 26.1318 113.825 20.5836C117.214 18.7873 119.873 16.7441 122.18 13.6807C119.421 22.7887 111.538 27.5826 103.037 30.6899C88.8564 35.8706 73.4968 36.1448 58.5313 36.1695L58.5286 36.1668Z" fill="white"/>
<path d="M87.4648 13.4037C87.9801 13.5243 87.9994 13.2309 88.2446 12.9484C90.6943 10.1181 92.0776 7.40024 95.1777 4.76466C95.8032 4.2326 98.5891 1.93984 99.3055 2.44446C99.4212 2.83939 99.5039 3.02863 99.3854 3.44549C99.2118 4.05434 96.3019 8.88944 95.8583 9.27888C95.2548 9.80545 93.0834 10.6556 92.1162 11.3138C90.1322 12.6632 88.1702 14.7557 86.8035 16.7221C85.6544 18.3759 84.9021 20.3972 83.6125 21.9083C83.9156 14.657 75.6131 15.2604 71.8875 11.4976C68.7655 8.34093 72.6453 3.20141 75.0647 0.79071C74.3813 4.11467 77.0212 5.1157 79.4709 6.41841C82.5654 8.06394 87.6026 8.96898 87.4703 13.4037H87.4648Z" fill="white"/>
</g>
<defs>
<clipPath id="clip0_2045_12">
<rect width="131" height="144" fill="white" transform="translate(0 0.5)"/>
</clipPath>
</defs>
</svg>
