<svg width="24" height="24" viewBox="0 0 24 24" fill="none" xmlns="http://www.w3.org/2000/svg">
<g clip-path="url(#clip0_2022_128)">
<path d="M6.5 13C10.09 13 13 10.09 13 6.5C13 2.91 10.09 0 6.5 0C2.91 0 0 2.91 0 6.5V10.5C0 11.881 1.119 13 2.5 13H6.5ZM6.5 11C5.948 11 5.5 10.552 5.5 10C5.5 9.448 5.948 9 6.5 9C7.052 9 7.5 9.448 7.5 10C7.5 10.552 7.052 11 6.5 11ZM7.947 7.629C7.551 7.846 7.232 8.181 7.229 8.185C7.032 8.393 6.767 8.498 6.5 8.498C6.254 8.498 6.009 8.408 5.816 8.227C5.415 7.85 5.392 7.221 5.768 6.818C5.821 6.76 6.31 6.246 6.981 5.877C7.271 5.717 7.576 5.342 7.483 4.81C7.414 4.419 7.08 4.086 6.689 4.017C6.384 3.962 6.087 4.04 5.857 4.234C5.629 4.425 5.499 4.704 5.499 5.001C5.499 5.553 5.051 6.001 4.499 6.001C3.947 6.001 3.499 5.553 3.499 5.001C3.499 4.112 3.89 3.275 4.57 2.703C5.25 2.131 6.148 1.892 7.034 2.048C8.244 2.26 9.239 3.254 9.452 4.465C9.675 5.738 9.07 7.01 7.946 7.63L7.947 7.629ZM14.27 11.48C13.457 12.293 13 13.396 13 14.545V15.499C13 15.775 13.224 15.999 13.5 15.999H14.455C15.604 15.999 16.707 15.542 17.519 14.73L23.234 9.015C24.084 8.165 24.247 6.779 23.486 5.848C22.611 4.778 21.03 4.719 20.077 5.672L14.27 11.48ZM14.849 8.073C14.945 7.563 15 7.038 15 6.5C15 5.63 14.868 4.791 14.625 4H18.984C18.878 4.088 18.761 4.161 18.663 4.259L14.849 8.073ZM24 11.078V21.854C24 22.647 23.565 23.373 22.866 23.748C22.548 23.919 22.199 24.004 21.851 24.004C21.435 24.004 21.02 23.883 20.661 23.644L16.697 21H11C8.243 21 6 18.757 6 16V14.975C6.166 14.985 6.331 15 6.5 15C8.183 15 9.748 14.504 11.069 13.66C11.028 13.952 11 14.246 11 14.546V15.5C11 16.879 12.122 18 13.5 18H14.455C16.146 18 17.737 17.341 18.934 16.145L24 11.079V11.078Z" fill="white"/>
</g>
<defs>
<clipPath id="clip0_2022_128">
<rect width="24" height="24" fill="white"/>
</clipPath>
</defs>
</svg>
