<svg width="24" height="24" viewBox="0 0 24 24" fill="none" xmlns="http://www.w3.org/2000/svg">
<g clip-path="url(#clip0_2048_30)">
<path d="M22 23C22 23.553 21.553 24 21 24H3C2.447 24 2 23.553 2 23C2 19.475 4.042 16.426 7 14.95V18.278C6.405 18.624 6 19.262 6 20.001C6 21.106 6.895 22.001 8 22.001C9.105 22.001 10 21.106 10 20.001C10 19.263 9.595 18.625 9 18.278V14.232C9.644 14.085 10.312 14 11 14H13C13.338 14 13.671 14.022 14 14.059V18.184C12.839 18.598 12 19.698 12 21V22C12 22.553 12.447 23 13 23C13.553 23 14 22.553 14 22V21C14 20.448 14.448 20 15 20C15.552 20 16 20.448 16 21V22C16 22.553 16.447 23 17 23C17.553 23 18 22.553 18 22V21C18 19.698 17.161 18.598 16 18.184V14.525C19.49 15.764 22 19.09 22 23ZM18 6C18 2.691 15.309 0 12 0C8.691 0 6 2.691 6 6C6 9.309 8.691 12 12 12C15.309 12 18 9.309 18 6Z" fill="white"/>
</g>
<defs>
<clipPath id="clip0_2048_30">
<rect width="24" height="24" fill="white"/>
</clipPath>
</defs>
</svg>
