<svg width="40" height="40" viewBox="0 0 40 40" fill="none" xmlns="http://www.w3.org/2000/svg">
<g clip-path="url(#clip0_2119_10)">
<path fill-rule="evenodd" clip-rule="evenodd" d="M34.1047 5.81333C30.3614 2.06667 25.3847 0.00166667 20.0831 0C9.15806 0 0.266393 8.89 0.261393 19.82C0.259727 23.3133 1.17306 26.7233 2.90806 29.73L0.0947266 40L10.6014 37.2433C13.4964 38.8233 16.7564 39.655 20.0731 39.6567H20.0814C31.0047 39.6567 39.8981 30.765 39.9031 19.835C39.9064 14.54 37.8464 9.55833 34.1047 5.81333ZM20.0831 36.3083H20.0764C17.1197 36.3083 14.2214 35.5133 11.6914 34.0117L11.0897 33.655L4.85473 35.29L6.51973 29.21L6.12806 28.5867C4.47806 25.9633 3.60806 22.9317 3.60973 19.82C3.61306 10.7367 11.0047 3.34667 20.0914 3.34667C24.4914 3.34667 28.6281 5.06333 31.7381 8.17667C34.8481 11.2917 36.5597 15.43 36.5581 19.8317C36.5531 28.9183 29.1631 36.3083 20.0831 36.3083ZM29.1197 23.97C28.6247 23.7217 26.1897 22.5233 25.7347 22.3583C25.2814 22.1933 24.9514 22.11 24.6197 22.605C24.2881 23.1 23.3414 24.2167 23.0514 24.5483C22.7631 24.8783 22.4731 24.92 21.9781 24.6717C21.4831 24.4233 19.8864 23.9017 17.9947 22.2133C16.5231 20.9 15.5281 19.2783 15.2397 18.7817C14.9514 18.285 15.2097 18.0183 15.4564 17.7717C15.6797 17.55 15.9514 17.1933 16.1997 16.9033C16.4497 16.6167 16.5314 16.41 16.6981 16.0783C16.8631 15.7483 16.7814 15.4583 16.6564 15.21C16.5314 14.9633 15.5414 12.525 15.1297 11.5333C14.7281 10.5667 14.3197 10.6983 14.0147 10.6833C13.7264 10.6683 13.3964 10.6667 13.0647 10.6667C12.7347 10.6667 12.1981 10.79 11.7447 11.2867C11.2914 11.7833 10.0114 12.9817 10.0114 15.4183C10.0114 17.8567 11.7864 20.2117 12.0331 20.5417C12.2797 20.8717 15.5247 25.875 20.4931 28.02C21.6747 28.53 22.5981 28.835 23.3164 29.0633C24.5031 29.44 25.5831 29.3867 26.4364 29.26C27.3881 29.1183 29.3664 28.0617 29.7797 26.905C30.1931 25.7483 30.1931 24.755 30.0681 24.55C29.9447 24.3417 29.6147 24.2183 29.1197 23.97Z" fill="white"/>
</g>
<defs>
<clipPath id="clip0_2119_10">
<rect width="40" height="40" fill="white"/>
</clipPath>
</defs>
</svg>
